<svg width="379" height="28" viewBox="0 0 379 28" fill="none" xmlns="http://www.w3.org/2000/svg">
<mask id="mask0_1_692" style="mask-type:alpha" maskUnits="userSpaceOnUse" x="0" y="1" width="27" height="27">
<rect y="1" width="27" height="27" fill="#D9D9D9"/>
</mask>
<g mask="url(#mask0_1_692)">
<path d="M13.5 14.5C14.1187 14.5 14.6484 14.2797 15.0891 13.8391C15.5297 13.3984 15.75 12.8687 15.75 12.25C15.75 11.6313 15.5297 11.1016 15.0891 10.6609C14.6484 10.2203 14.1187 10 13.5 10C12.8813 10 12.3516 10.2203 11.9109 10.6609C11.4703 11.1016 11.25 11.6313 11.25 12.25C11.25 12.8687 11.4703 13.3984 11.9109 13.8391C12.3516 14.2797 12.8813 14.5 13.5 14.5ZM13.5 22.7688C15.7875 20.6688 17.4844 18.7609 18.5906 17.0453C19.6969 15.3297 20.25 13.8062 20.25 12.475C20.25 10.4312 19.5984 8.75781 18.2953 7.45469C16.9922 6.15156 15.3938 5.5 13.5 5.5C11.6062 5.5 10.0078 6.15156 8.70469 7.45469C7.40156 8.75781 6.75 10.4312 6.75 12.475C6.75 13.8062 7.30313 15.3297 8.40938 17.0453C9.51562 18.7609 11.2125 20.6688 13.5 22.7688ZM13.5 25.75C10.4812 23.1812 8.22656 20.7953 6.73594 18.5922C5.24531 16.3891 4.5 14.35 4.5 12.475C4.5 9.6625 5.40469 7.42188 7.21406 5.75313C9.02344 4.08438 11.1188 3.25 13.5 3.25C15.8812 3.25 17.9766 4.08438 19.7859 5.75313C21.5953 7.42188 22.5 9.6625 22.5 12.475C22.5 14.35 21.7547 16.3891 20.2641 18.5922C18.7734 20.7953 16.5188 23.1812 13.5 25.75Z" fill="#E8E9E9"/>
</g>
<path d="M46.38 22L40.242 6.6H43.74L46.952 14.938C47.128 15.3927 47.2747 15.796 47.392 16.148C47.524 16.4853 47.634 16.808 47.722 17.116C47.8247 17.4093 47.92 17.7027 48.008 17.996C48.096 18.2747 48.184 18.5827 48.272 18.92L47.634 18.942C47.7513 18.4873 47.8687 18.0693 47.986 17.688C48.1033 17.292 48.2353 16.8813 48.382 16.456C48.5287 16.0307 48.712 15.5247 48.932 14.938L51.968 6.6H55.444L49.262 22H46.38ZM61.457 22.22C60.1957 22.22 59.0957 21.9633 58.157 21.45C57.2184 20.9367 56.485 20.2327 55.957 19.338C55.429 18.4433 55.165 17.4167 55.165 16.258C55.165 15.3633 55.3117 14.542 55.605 13.794C55.8984 13.046 56.309 12.4007 56.837 11.858C57.365 11.3007 57.9884 10.8753 58.707 10.582C59.4404 10.274 60.2324 10.12 61.083 10.12C61.875 10.12 62.6084 10.2667 63.283 10.56C63.9577 10.8387 64.537 11.242 65.021 11.77C65.5197 12.2833 65.901 12.892 66.165 13.596C66.429 14.3 66.5464 15.07 66.517 15.906L66.495 16.874H57.145L56.639 14.96H63.921L63.569 15.356V14.872C63.5397 14.476 63.4077 14.1167 63.173 13.794C62.953 13.4713 62.667 13.222 62.315 13.046C61.963 12.87 61.567 12.782 61.127 12.782C60.4817 12.782 59.9317 12.9067 59.477 13.156C59.037 13.4053 58.6997 13.772 58.465 14.256C58.2304 14.74 58.113 15.3267 58.113 16.016C58.113 16.72 58.2597 17.3287 58.553 17.842C58.861 18.3553 59.2864 18.7587 59.829 19.052C60.3864 19.3307 61.039 19.47 61.787 19.47C62.3004 19.47 62.7697 19.3893 63.195 19.228C63.6204 19.0667 64.075 18.788 64.559 18.392L66.055 20.482C65.6297 20.8633 65.1604 21.186 64.647 21.45C64.1337 21.6993 63.6057 21.89 63.063 22.022C62.5204 22.154 61.985 22.22 61.457 22.22ZM68.8257 22V10.362H71.8177L71.9057 12.738L71.2897 13.002C71.451 12.474 71.737 11.9973 72.1477 11.572C72.573 11.132 73.079 10.78 73.6657 10.516C74.2523 10.252 74.8683 10.12 75.5137 10.12C76.3937 10.12 77.127 10.296 77.7137 10.648C78.315 11 78.7623 11.5353 79.0557 12.254C79.3637 12.958 79.5177 13.8307 79.5177 14.872V22H76.3937V15.114C76.3937 14.586 76.3203 14.146 76.1737 13.794C76.027 13.442 75.7997 13.1853 75.4917 13.024C75.1983 12.848 74.8317 12.7747 74.3917 12.804C74.0397 12.804 73.7097 12.8627 73.4017 12.98C73.1083 13.0827 72.8517 13.2367 72.6317 13.442C72.4263 13.6473 72.2577 13.882 72.1257 14.146C72.0083 14.41 71.9497 14.696 71.9497 15.004V22H70.4097C70.0723 22 69.7717 22 69.5077 22C69.2437 22 69.0163 22 68.8257 22ZM86.5152 22.22C85.6646 22.22 84.9312 22.0367 84.3152 21.67C83.7139 21.2887 83.2446 20.7533 82.9072 20.064C82.5846 19.36 82.4232 18.5167 82.4232 17.534V10.362H85.5472V17.028C85.5472 17.556 85.6352 18.018 85.8112 18.414C85.9872 18.7953 86.2366 19.0887 86.5592 19.294C86.8819 19.4993 87.2779 19.602 87.7472 19.602C88.0846 19.602 88.3999 19.5507 88.6932 19.448C88.9866 19.3307 89.2359 19.1693 89.4412 18.964C89.6466 18.7587 89.8079 18.5167 89.9252 18.238C90.0426 17.9593 90.1012 17.6587 90.1012 17.336V10.362H93.2252V22H90.2552L90.1452 19.602L90.7172 19.338C90.5412 19.8807 90.2479 20.372 89.8372 20.812C89.4266 21.252 88.9352 21.5967 88.3632 21.846C87.7912 22.0953 87.1752 22.22 86.5152 22.22ZM101.891 22.22C100.629 22.22 99.5293 21.9633 98.5906 21.45C97.652 20.9367 96.9186 20.2327 96.3906 19.338C95.8626 18.4433 95.5986 17.4167 95.5986 16.258C95.5986 15.3633 95.7453 14.542 96.0386 13.794C96.332 13.046 96.7426 12.4007 97.2706 11.858C97.7986 11.3007 98.422 10.8753 99.1406 10.582C99.874 10.274 100.666 10.12 101.517 10.12C102.309 10.12 103.042 10.2667 103.717 10.56C104.391 10.8387 104.971 11.242 105.455 11.77C105.953 12.2833 106.335 12.892 106.599 13.596C106.863 14.3 106.98 15.07 106.951 15.906L106.929 16.874H97.5786L97.0726 14.96H104.355L104.003 15.356V14.872C103.973 14.476 103.841 14.1167 103.607 13.794C103.387 13.4713 103.101 13.222 102.749 13.046C102.397 12.87 102.001 12.782 101.561 12.782C100.915 12.782 100.365 12.9067 99.9106 13.156C99.4706 13.4053 99.1333 13.772 98.8986 14.256C98.664 14.74 98.5466 15.3267 98.5466 16.016C98.5466 16.72 98.6933 17.3287 98.9866 17.842C99.2946 18.3553 99.72 18.7587 100.263 19.052C100.82 19.3307 101.473 19.47 102.221 19.47C102.734 19.47 103.203 19.3893 103.629 19.228C104.054 19.0667 104.509 18.788 104.993 18.392L106.489 20.482C106.063 20.8633 105.594 21.186 105.081 21.45C104.567 21.6993 104.039 21.89 103.497 22.022C102.954 22.154 102.419 22.22 101.891 22.22Z" fill="white"/>
<mask id="mask1_1_692" style="mask-type:alpha" maskUnits="userSpaceOnUse" x="134" y="1" width="27" height="27">
<rect x="134" y="1" width="27" height="27" fill="#D9D9D9"/>
</mask>
<g mask="url(#mask1_1_692)">
<path d="M147.5 25.75C146.094 25.75 144.777 25.4828 143.548 24.9484C142.32 24.4141 141.252 23.6922 140.342 22.7828C139.433 21.8734 138.711 20.8047 138.177 19.5766C137.642 18.3484 137.375 17.0312 137.375 15.625C137.375 14.2187 137.642 12.9016 138.177 11.6734C138.711 10.4453 139.433 9.37655 140.342 8.46718C141.252 7.5578 142.32 6.83593 143.548 6.30155C144.777 5.76718 146.094 5.49999 147.5 5.49999C148.906 5.49999 150.223 5.76718 151.452 6.30155C152.68 6.83593 153.748 7.5578 154.658 8.46718C155.567 9.37655 156.289 10.4453 156.823 11.6734C157.358 12.9016 157.625 14.2187 157.625 15.625C157.625 17.0312 157.358 18.3484 156.823 19.5766C156.289 20.8047 155.567 21.8734 154.658 22.7828C153.748 23.6922 152.68 24.4141 151.452 24.9484C150.223 25.4828 148.906 25.75 147.5 25.75ZM150.65 20.35L152.225 18.775L148.625 15.175V9.99999H146.375V16.075L150.65 20.35ZM140.3 3.64374L141.875 5.21874L137.094 9.99999L135.519 8.42499L140.3 3.64374ZM154.7 3.64374L159.481 8.42499L157.906 9.99999L153.125 5.21874L154.7 3.64374ZM147.5 23.5C149.694 23.5 151.555 22.7359 153.083 21.2078C154.611 19.6797 155.375 17.8187 155.375 15.625C155.375 13.4312 154.611 11.5703 153.083 10.0422C151.555 8.51405 149.694 7.74999 147.5 7.74999C145.306 7.74999 143.445 8.51405 141.917 10.0422C140.389 11.5703 139.625 13.4312 139.625 15.625C139.625 17.8187 140.389 19.6797 141.917 21.2078C143.445 22.7359 145.306 23.5 147.5 23.5Z" fill="#E8E9E9"/>
</g>
<path d="M181.172 22.22C179.852 22.22 178.723 21.9047 177.784 21.274C176.86 20.6433 176.149 19.7413 175.65 18.568C175.166 17.38 174.924 15.9573 174.924 14.3C174.924 12.6427 175.166 11.2273 175.65 10.054C176.149 8.866 176.86 7.95667 177.784 7.326C178.723 6.69533 179.852 6.38 181.172 6.38C182.492 6.38 183.621 6.69533 184.56 7.326C185.499 7.95667 186.21 8.866 186.694 10.054C187.193 11.2273 187.442 12.6427 187.442 14.3C187.442 15.9573 187.193 17.38 186.694 18.568C186.21 19.7413 185.499 20.6433 184.56 21.274C183.621 21.9047 182.492 22.22 181.172 22.22ZM181.172 19.382C182.155 19.382 182.917 18.942 183.46 18.062C184.003 17.182 184.274 15.928 184.274 14.3C184.274 12.6427 184.003 11.3667 183.46 10.472C182.917 9.57733 182.155 9.13 181.172 9.13C180.175 9.13 179.405 9.57733 178.862 10.472C178.334 11.3667 178.07 12.6427 178.07 14.3C178.07 15.928 178.334 17.182 178.862 18.062C179.405 18.942 180.175 19.382 181.172 19.382ZM196.073 22V9.548L197.613 9.636L192.201 16.258L191.827 15.708H201.815V18.502H190.221L188.857 15.906L196.623 6.512H199.263V22H196.073ZM202.881 25.058L212.011 6.6H215.091L205.983 25.058H202.881ZM221.515 22.22C220.327 22.22 219.286 21.9633 218.391 21.45C217.511 20.9367 216.697 20.0567 215.949 18.81L218.369 17.27C218.706 17.7833 219.044 18.2013 219.381 18.524C219.733 18.8467 220.1 19.0813 220.481 19.228C220.862 19.3747 221.258 19.448 221.669 19.448C222.109 19.448 222.52 19.3453 222.901 19.14C223.282 18.9347 223.583 18.6487 223.803 18.282C224.038 17.9007 224.155 17.468 224.155 16.984C224.155 16.4853 224.06 16.0673 223.869 15.73C223.678 15.3927 223.4 15.136 223.033 14.96C222.666 14.784 222.234 14.696 221.735 14.696C221.515 14.696 221.273 14.718 221.009 14.762C220.745 14.806 220.474 14.8793 220.195 14.982C219.916 15.07 219.616 15.18 219.293 15.312L218.523 13.288L222.593 8.844L223.429 9.438L216.961 9.35V6.512H226.223L226.817 7.722L221.735 13.222L220.965 12.32C221.082 12.2613 221.273 12.21 221.537 12.166C221.816 12.1073 222.072 12.078 222.307 12.078C222.982 12.078 223.612 12.2027 224.199 12.452C224.786 12.7013 225.306 13.046 225.761 13.486C226.216 13.926 226.568 14.4393 226.817 15.026C227.081 15.6127 227.213 16.2433 227.213 16.918C227.213 17.93 226.956 18.8393 226.443 19.646C225.944 20.438 225.262 21.0687 224.397 21.538C223.546 21.9927 222.586 22.22 221.515 22.22ZM227.717 25.058L236.847 6.6H239.927L230.819 25.058H227.717ZM241.175 22L240.449 20.196L245.003 15.158C245.252 14.894 245.516 14.586 245.795 14.234C246.088 13.882 246.367 13.5227 246.631 13.156C246.909 12.7747 247.129 12.408 247.291 12.056C247.452 11.6893 247.533 11.3593 247.533 11.066C247.533 10.7287 247.459 10.4353 247.313 10.186C247.166 9.922 246.953 9.71667 246.675 9.57C246.396 9.42333 246.051 9.35 245.641 9.35C245.259 9.35 244.9 9.45267 244.563 9.658C244.225 9.84867 243.91 10.1347 243.617 10.516C243.323 10.8973 243.067 11.3593 242.847 11.902L240.383 10.516C240.676 9.66533 241.094 8.92467 241.637 8.294C242.179 7.66333 242.825 7.172 243.573 6.82C244.321 6.468 245.12 6.292 245.971 6.292C246.865 6.30667 247.672 6.49733 248.391 6.864C249.109 7.23067 249.674 7.744 250.085 8.404C250.495 9.064 250.701 9.82667 250.701 10.692C250.701 11.0147 250.664 11.3447 250.591 11.682C250.532 12.0193 250.422 12.3713 250.261 12.738C250.114 13.1047 249.916 13.4933 249.667 13.904C249.432 14.3 249.139 14.7253 248.787 15.18C248.449 15.62 248.061 16.082 247.621 16.566L244.123 20.372L243.683 19.03H251.339V22H241.175ZM258.86 22.22C257.54 22.22 256.41 21.9047 255.472 21.274C254.548 20.6433 253.836 19.7413 253.338 18.568C252.854 17.38 252.612 15.9573 252.612 14.3C252.612 12.6427 252.854 11.2273 253.338 10.054C253.836 8.866 254.548 7.95667 255.472 7.326C256.41 6.69533 257.54 6.38 258.86 6.38C260.18 6.38 261.309 6.69533 262.248 7.326C263.186 7.95667 263.898 8.866 264.382 10.054C264.88 11.2273 265.13 12.6427 265.13 14.3C265.13 15.9573 264.88 17.38 264.382 18.568C263.898 19.7413 263.186 20.6433 262.248 21.274C261.309 21.9047 260.18 22.22 258.86 22.22ZM258.86 19.382C259.842 19.382 260.605 18.942 261.148 18.062C261.69 17.182 261.962 15.928 261.962 14.3C261.962 12.6427 261.69 11.3667 261.148 10.472C260.605 9.57733 259.842 9.13 258.86 9.13C257.862 9.13 257.092 9.57733 256.55 10.472C256.022 11.3667 255.758 12.6427 255.758 14.3C255.758 15.928 256.022 17.182 256.55 18.062C257.092 18.942 257.862 19.382 258.86 19.382ZM267.601 22L266.875 20.196L271.429 15.158C271.678 14.894 271.942 14.586 272.221 14.234C272.514 13.882 272.793 13.5227 273.057 13.156C273.335 12.7747 273.555 12.408 273.717 12.056C273.878 11.6893 273.959 11.3593 273.959 11.066C273.959 10.7287 273.885 10.4353 273.739 10.186C273.592 9.922 273.379 9.71667 273.101 9.57C272.822 9.42333 272.477 9.35 272.067 9.35C271.685 9.35 271.326 9.45267 270.989 9.658C270.651 9.84867 270.336 10.1347 270.043 10.516C269.749 10.8973 269.493 11.3593 269.273 11.902L266.809 10.516C267.102 9.66533 267.52 8.92467 268.063 8.294C268.605 7.66333 269.251 7.172 269.999 6.82C270.747 6.468 271.546 6.292 272.397 6.292C273.291 6.30667 274.098 6.49733 274.817 6.864C275.535 7.23067 276.1 7.744 276.511 8.404C276.921 9.064 277.127 9.82667 277.127 10.692C277.127 11.0147 277.09 11.3447 277.017 11.682C276.958 12.0193 276.848 12.3713 276.687 12.738C276.54 13.1047 276.342 13.4933 276.093 13.904C275.858 14.3 275.565 14.7253 275.213 15.18C274.875 15.62 274.487 16.082 274.047 16.566L270.549 20.372L270.109 19.03H277.765V22H267.601ZM285.384 22V9.548L286.924 9.636L281.512 16.258L281.138 15.708H291.126V18.502H279.532L278.168 15.906L285.934 6.512H288.574V22H285.384ZM307.803 25.564C306.527 25.564 305.376 25.366 304.349 24.97C303.337 24.5887 302.472 24.0387 301.753 23.32C301.049 22.616 300.507 21.7653 300.125 20.768C299.759 19.7707 299.575 18.6707 299.575 17.468C299.575 15.752 299.876 14.212 300.477 12.848C301.093 11.4693 301.937 10.3033 303.007 9.35C304.093 8.382 305.347 7.64867 306.769 7.15C308.207 6.63667 309.739 6.38 311.367 6.38C312.541 6.38 313.597 6.54867 314.535 6.886C315.474 7.20867 316.281 7.678 316.955 8.294C317.63 8.91 318.143 9.64333 318.495 10.494C318.862 11.33 319.045 12.2613 319.045 13.288C319.045 14.3 318.899 15.2607 318.605 16.17C318.327 17.0793 317.931 17.886 317.417 18.59C316.904 19.294 316.303 19.8513 315.613 20.262C314.939 20.6727 314.205 20.878 313.413 20.878C312.871 20.878 312.387 20.7827 311.961 20.592C311.536 20.4013 311.206 20.1447 310.971 19.822C310.737 19.4847 310.619 19.0887 310.619 18.634C310.619 18.3847 310.634 18.1353 310.663 17.886C310.707 17.6367 310.737 17.38 310.751 17.116L311.235 17.556C311.001 18.26 310.693 18.8613 310.311 19.36C309.945 19.8587 309.512 20.24 309.013 20.504C308.529 20.7533 307.994 20.878 307.407 20.878C306.747 20.878 306.153 20.7093 305.625 20.372C305.112 20.02 304.709 19.536 304.415 18.92C304.122 18.304 303.975 17.5927 303.975 16.786C303.975 16.082 304.107 15.3707 304.371 14.652C304.635 13.9187 305.002 13.2513 305.471 12.65C305.955 12.034 306.52 11.5427 307.165 11.176C307.811 10.7947 308.515 10.604 309.277 10.604C309.732 10.604 310.135 10.7213 310.487 10.956C310.854 11.1907 311.147 11.5207 311.367 11.946C311.602 12.3567 311.741 12.8333 311.785 13.376L311.169 14.212L311.785 10.846H314.645L313.413 17.754C313.369 18.0033 313.377 18.2087 313.435 18.37C313.509 18.5167 313.619 18.6267 313.765 18.7C313.927 18.7733 314.095 18.81 314.271 18.81C314.682 18.81 315.063 18.6707 315.415 18.392C315.782 18.0987 316.097 17.7027 316.361 17.204C316.625 16.7053 316.831 16.1333 316.977 15.488C317.139 14.828 317.219 14.1313 317.219 13.398C317.219 12.298 316.985 11.352 316.515 10.56C316.046 9.768 315.364 9.16667 314.469 8.756C313.575 8.33067 312.497 8.118 311.235 8.118C309.739 8.118 308.383 8.33067 307.165 8.756C305.963 9.16667 304.929 9.77533 304.063 10.582C303.213 11.3887 302.56 12.364 302.105 13.508C301.651 14.652 301.423 15.95 301.423 17.402C301.423 18.414 301.563 19.316 301.841 20.108C302.135 20.8853 302.553 21.5527 303.095 22.11C303.638 22.6673 304.313 23.0853 305.119 23.364C305.926 23.6573 306.843 23.804 307.869 23.804C308.559 23.804 309.153 23.7527 309.651 23.65C310.15 23.562 310.627 23.4153 311.081 23.21C311.536 23.0193 312.042 22.7773 312.599 22.484L313.413 23.958C312.548 24.398 311.807 24.728 311.191 24.948C310.575 25.1827 310.003 25.344 309.475 25.432C308.947 25.52 308.39 25.564 307.803 25.564ZM308.199 18.48C308.61 18.48 309.013 18.348 309.409 18.084C309.805 17.8053 310.143 17.446 310.421 17.006C310.715 16.566 310.898 16.0893 310.971 15.576C311.015 15.356 311.052 15.158 311.081 14.982C311.111 14.806 311.125 14.6373 311.125 14.476C311.125 14.1533 311.067 13.8747 310.949 13.64C310.832 13.4053 310.663 13.2293 310.443 13.112C310.223 12.98 309.952 12.914 309.629 12.914C309.131 12.914 308.676 13.0973 308.265 13.464C307.869 13.8307 307.554 14.3073 307.319 14.894C307.085 15.4807 306.967 16.0967 306.967 16.742C306.967 17.2847 307.077 17.71 307.297 18.018C307.517 18.326 307.818 18.48 308.199 18.48ZM324.608 20.922V8.426L325.422 9.9L322.21 11.462L321.572 8.536L325.862 6.38H327.864V20.922H324.608ZM321.902 22V19.03H330.636V22H321.902ZM336.554 22L336.466 21.78L341.218 12.056L341.68 13.53C341.489 14.0287 341.232 14.4833 340.91 14.894C340.587 15.29 340.213 15.6347 339.788 15.928C339.377 16.2067 338.944 16.4267 338.49 16.588C338.035 16.7493 337.588 16.83 337.148 16.83C336.312 16.83 335.542 16.6027 334.838 16.148C334.134 15.6933 333.569 15.092 333.144 14.344C332.718 13.5813 332.506 12.76 332.506 11.88C332.506 10.824 332.748 9.87067 333.232 9.02C333.73 8.16933 334.405 7.502 335.256 7.018C336.106 6.51933 337.067 6.27 338.138 6.27C338.9 6.27 339.619 6.40933 340.294 6.688C340.968 6.952 341.562 7.33333 342.076 7.832C342.589 8.316 342.985 8.87333 343.264 9.504C343.557 10.1347 343.704 10.8093 343.704 11.528C343.704 11.9973 343.66 12.474 343.572 12.958C343.484 13.442 343.352 13.948 343.176 14.476C343 14.9893 342.772 15.554 342.494 16.17C342.23 16.7713 341.922 17.4387 341.57 18.172L339.656 22H336.554ZM337.918 14.102C338.416 14.102 338.856 13.992 339.238 13.772C339.619 13.552 339.92 13.2587 340.14 12.892C340.36 12.5107 340.47 12.0927 340.47 11.638C340.47 11.1393 340.36 10.6993 340.14 10.318C339.934 9.922 339.641 9.614 339.26 9.394C338.878 9.15933 338.438 9.042 337.94 9.042C337.485 9.042 337.074 9.152 336.708 9.372C336.356 9.592 336.07 9.89267 335.85 10.274C335.644 10.6553 335.542 11.1027 335.542 11.616C335.542 12.056 335.644 12.4667 335.85 12.848C336.07 13.2293 336.356 13.5373 336.708 13.772C337.074 13.992 337.478 14.102 337.918 14.102ZM347.078 22.22C346.506 22.22 346.066 22.0587 345.758 21.736C345.45 21.4133 345.296 20.9513 345.296 20.35C345.296 19.8073 345.457 19.3673 345.78 19.03C346.117 18.678 346.55 18.502 347.078 18.502C347.635 18.502 348.068 18.6633 348.376 18.986C348.684 19.3087 348.838 19.7633 348.838 20.35C348.838 20.9073 348.676 21.362 348.354 21.714C348.031 22.0513 347.606 22.22 347.078 22.22ZM347.078 13.882C346.506 13.882 346.066 13.7207 345.758 13.398C345.45 13.0753 345.296 12.6133 345.296 12.012C345.296 11.4693 345.457 11.0293 345.78 10.692C346.117 10.34 346.55 10.164 347.078 10.164C347.635 10.164 348.068 10.3253 348.376 10.648C348.684 10.9707 348.838 11.4253 348.838 12.012C348.838 12.5693 348.676 13.024 348.354 13.376C348.031 13.7133 347.606 13.882 347.078 13.882ZM356.957 22.22C355.637 22.22 354.508 21.9047 353.569 21.274C352.645 20.6433 351.934 19.7413 351.435 18.568C350.951 17.38 350.709 15.9573 350.709 14.3C350.709 12.6427 350.951 11.2273 351.435 10.054C351.934 8.866 352.645 7.95667 353.569 7.326C354.508 6.69533 355.637 6.38 356.957 6.38C358.277 6.38 359.406 6.69533 360.345 7.326C361.284 7.95667 361.995 8.866 362.479 10.054C362.978 11.2273 363.227 12.6427 363.227 14.3C363.227 15.9573 362.978 17.38 362.479 18.568C361.995 19.7413 361.284 20.6433 360.345 21.274C359.406 21.9047 358.277 22.22 356.957 22.22ZM356.957 19.382C357.94 19.382 358.702 18.942 359.245 18.062C359.788 17.182 360.059 15.928 360.059 14.3C360.059 12.6427 359.788 11.3667 359.245 10.472C358.702 9.57733 357.94 9.13 356.957 9.13C355.96 9.13 355.19 9.57733 354.647 10.472C354.119 11.3667 353.855 12.6427 353.855 14.3C353.855 15.928 354.119 17.182 354.647 18.062C355.19 18.942 355.96 19.382 356.957 19.382ZM371.33 22.22C370.01 22.22 368.881 21.9047 367.942 21.274C367.018 20.6433 366.307 19.7413 365.808 18.568C365.324 17.38 365.082 15.9573 365.082 14.3C365.082 12.6427 365.324 11.2273 365.808 10.054C366.307 8.866 367.018 7.95667 367.942 7.326C368.881 6.69533 370.01 6.38 371.33 6.38C372.65 6.38 373.78 6.69533 374.718 7.326C375.657 7.95667 376.368 8.866 376.852 10.054C377.351 11.2273 377.6 12.6427 377.6 14.3C377.6 15.9573 377.351 17.38 376.852 18.568C376.368 19.7413 375.657 20.6433 374.718 21.274C373.78 21.9047 372.65 22.22 371.33 22.22ZM371.33 19.382C372.313 19.382 373.076 18.942 373.618 18.062C374.161 17.182 374.432 15.928 374.432 14.3C374.432 12.6427 374.161 11.3667 373.618 10.472C373.076 9.57733 372.313 9.13 371.33 9.13C370.333 9.13 369.563 9.57733 369.02 10.472C368.492 11.3667 368.228 12.6427 368.228 14.3C368.228 15.928 368.492 17.182 369.02 18.062C369.563 18.942 370.333 19.382 371.33 19.382Z" fill="white"/>
</svg>
