<svg width="194" height="52" viewBox="0 0 194 52" fill="none" xmlns="http://www.w3.org/2000/svg">
<rect width="194" height="52" rx="26" fill="#FFCA5F"/>
<path d="M26.264 35.24C25.656 35.24 25.08 35.168 24.536 35.024C23.992 34.896 23.496 34.704 23.048 34.448C22.6 34.176 22.2 33.856 21.848 33.488C21.496 33.104 21.192 32.68 20.936 32.216L23.264 29.792C23.488 30.128 23.704 30.408 23.912 30.632C24.12 30.84 24.32 31.016 24.512 31.16C24.72 31.304 24.928 31.408 25.136 31.472C25.36 31.536 25.592 31.568 25.832 31.568C26.216 31.568 26.552 31.48 26.84 31.304C27.144 31.112 27.376 30.856 27.536 30.536C27.696 30.216 27.776 29.84 27.776 29.408V21.752H24.704V18.2H34.352V21.752H31.76V29.888C31.76 30.704 31.616 31.44 31.328 32.096C31.056 32.752 30.672 33.32 30.176 33.8C29.68 34.264 29.096 34.624 28.424 34.88C27.768 35.12 27.048 35.24 26.264 35.24ZM42.4696 35.24C41.1416 35.24 39.9576 34.952 38.9176 34.376C37.8936 33.8 37.0776 33.016 36.4696 32.024C35.8776 31.032 35.5816 29.896 35.5816 28.616C35.5816 27.336 35.8776 26.2 36.4696 25.208C37.0776 24.216 37.8936 23.432 38.9176 22.856C39.9576 22.28 41.1416 21.992 42.4696 21.992C43.7976 21.992 44.9736 22.28 45.9976 22.856C47.0376 23.432 47.8536 24.216 48.4456 25.208C49.0376 26.2 49.3336 27.336 49.3336 28.616C49.3336 29.896 49.0376 31.032 48.4456 32.024C47.8536 33.016 47.0376 33.8 45.9976 34.376C44.9736 34.952 43.7976 35.24 42.4696 35.24ZM42.4696 31.928C43.0456 31.928 43.5576 31.784 44.0056 31.496C44.4536 31.208 44.8056 30.816 45.0616 30.32C45.3176 29.824 45.4376 29.256 45.4216 28.616C45.4376 27.976 45.3176 27.408 45.0616 26.912C44.8056 26.4 44.4536 26 44.0056 25.712C43.5576 25.424 43.0456 25.28 42.4696 25.28C41.8936 25.28 41.3736 25.424 40.9096 25.712C40.4616 26 40.1096 26.4 39.8536 26.912C39.5976 27.408 39.4776 27.976 39.4936 28.616C39.4776 29.256 39.5976 29.824 39.8536 30.32C40.1096 30.816 40.4616 31.208 40.9096 31.496C41.3736 31.784 41.8936 31.928 42.4696 31.928ZM52.0606 35V22.256H55.9006V35H52.0606ZM53.9806 19.736C53.2606 19.736 52.6926 19.568 52.2766 19.232C51.8766 18.88 51.6766 18.384 51.6766 17.744C51.6766 17.168 51.8846 16.696 52.3006 16.328C52.7166 15.96 53.2766 15.776 53.9806 15.776C54.7006 15.776 55.2606 15.952 55.6606 16.304C56.0606 16.64 56.2606 17.12 56.2606 17.744C56.2606 18.336 56.0526 18.816 55.6366 19.184C55.2366 19.552 54.6846 19.736 53.9806 19.736ZM59.5087 35V22.256H63.1567L63.2767 24.848L62.5087 25.136C62.6847 24.56 62.9967 24.04 63.4447 23.576C63.9087 23.096 64.4607 22.712 65.1007 22.424C65.7407 22.136 66.4127 21.992 67.1167 21.992C68.0767 21.992 68.8847 22.192 69.5407 22.592C70.1967 22.976 70.6927 23.56 71.0287 24.344C71.3647 25.112 71.5327 26.056 71.5327 27.176V35H67.6687V27.488C67.6687 26.976 67.5967 26.552 67.4527 26.216C67.3087 25.88 67.0847 25.632 66.7807 25.472C66.4927 25.296 66.1327 25.216 65.7007 25.232C65.3647 25.232 65.0527 25.288 64.7647 25.4C64.4767 25.496 64.2287 25.648 64.0207 25.856C63.8127 26.048 63.6447 26.272 63.5167 26.528C63.4047 26.784 63.3487 27.064 63.3487 27.368V35H61.4527C61.0047 35 60.6207 35 60.3007 35C59.9807 35 59.7167 35 59.5087 35ZM85.8626 35L80.8226 18.2H84.9746L87.4946 27.032C87.6066 27.432 87.7026 27.84 87.7826 28.256C87.8786 28.656 87.9506 29.04 87.9986 29.408C88.0626 29.776 88.1106 30.12 88.1426 30.44C88.1746 30.744 88.2066 31 88.2386 31.208H87.7106C87.8066 30.616 87.8866 30.088 87.9506 29.624C88.0306 29.16 88.1186 28.728 88.2146 28.328C88.3106 27.912 88.4306 27.48 88.5746 27.032L91.0706 20.384H94.3346L96.7826 27.032C96.9746 27.56 97.1346 28.056 97.2626 28.52C97.3906 28.984 97.4866 29.432 97.5506 29.864C97.6306 30.28 97.6946 30.696 97.7426 31.112L97.2626 31.184C97.2946 30.896 97.3186 30.632 97.3346 30.392C97.3506 30.136 97.3666 29.896 97.3826 29.672C97.4146 29.432 97.4466 29.184 97.4786 28.928C97.5106 28.672 97.5586 28.392 97.6226 28.088C97.6866 27.768 97.7746 27.408 97.8866 27.008L100.383 18.2H104.439L99.3986 35H96.2786L92.2946 25.328L92.7506 25.376L89.0786 35H85.8626ZM110.361 35.216C109.289 35.216 108.329 34.936 107.481 34.376C106.649 33.8 105.985 33.016 105.489 32.024C104.993 31.016 104.745 29.88 104.745 28.616C104.745 27.32 104.993 26.176 105.489 25.184C105.985 24.192 106.665 23.416 107.529 22.856C108.393 22.28 109.377 21.992 110.481 21.992C111.089 21.992 111.641 22.08 112.137 22.256C112.649 22.432 113.097 22.68 113.481 23C113.865 23.304 114.193 23.664 114.465 24.08C114.737 24.48 114.937 24.912 115.065 25.376L114.273 25.28V22.256H118.089V35H114.201V31.928L115.065 31.904C114.937 32.352 114.729 32.776 114.441 33.176C114.153 33.576 113.801 33.928 113.385 34.232C112.969 34.536 112.505 34.776 111.993 34.952C111.481 35.128 110.937 35.216 110.361 35.216ZM111.417 31.976C112.009 31.976 112.521 31.84 112.953 31.568C113.385 31.296 113.721 30.912 113.961 30.416C114.201 29.904 114.321 29.304 114.321 28.616C114.321 27.928 114.201 27.336 113.961 26.84C113.721 26.328 113.385 25.936 112.953 25.664C112.521 25.376 112.009 25.232 111.417 25.232C110.841 25.232 110.337 25.376 109.905 25.664C109.489 25.936 109.161 26.328 108.921 26.84C108.681 27.336 108.561 27.928 108.561 28.616C108.561 29.304 108.681 29.904 108.921 30.416C109.161 30.912 109.489 31.296 109.905 31.568C110.337 31.84 110.841 31.976 111.417 31.976ZM121.693 35V22.256H125.533V35H121.693ZM123.613 19.736C122.893 19.736 122.325 19.568 121.909 19.232C121.509 18.88 121.309 18.384 121.309 17.744C121.309 17.168 121.517 16.696 121.933 16.328C122.349 15.96 122.909 15.776 123.613 15.776C124.333 15.776 124.893 15.952 125.293 16.304C125.693 16.64 125.893 17.12 125.893 17.744C125.893 18.336 125.685 18.816 125.269 19.184C124.869 19.552 124.317 19.736 123.613 19.736ZM130.198 35V19.04H134.038V35H130.198ZM127.942 25.616V22.256H136.51V25.616H127.942ZM138.728 35V17.24H142.568V35H138.728ZM146.209 35V22.256H150.049V35H146.209ZM148.129 19.736C147.409 19.736 146.841 19.568 146.425 19.232C146.025 18.88 145.825 18.384 145.825 17.744C145.825 17.168 146.033 16.696 146.449 16.328C146.865 15.96 147.425 15.776 148.129 15.776C148.849 15.776 149.409 15.952 149.809 16.304C150.209 16.64 150.409 17.12 150.409 17.744C150.409 18.336 150.201 18.816 149.785 19.184C149.385 19.552 148.833 19.736 148.129 19.736ZM157.953 35.24C156.705 35.24 155.601 35.04 154.641 34.64C153.697 34.24 152.945 33.704 152.385 33.032L154.713 31.016C155.209 31.512 155.769 31.88 156.393 32.12C157.017 32.344 157.609 32.456 158.169 32.456C158.393 32.456 158.593 32.432 158.769 32.384C158.945 32.336 159.089 32.272 159.201 32.192C159.329 32.096 159.425 31.992 159.489 31.88C159.553 31.752 159.585 31.608 159.585 31.448C159.585 31.128 159.441 30.88 159.153 30.704C159.009 30.624 158.769 30.528 158.433 30.416C158.097 30.304 157.665 30.176 157.137 30.032C156.385 29.84 155.729 29.616 155.169 29.36C154.625 29.088 154.177 28.776 153.825 28.424C153.505 28.088 153.257 27.72 153.081 27.32C152.905 26.904 152.817 26.44 152.817 25.928C152.817 25.336 152.953 24.8 153.225 24.32C153.513 23.84 153.889 23.424 154.353 23.072C154.833 22.72 155.377 22.456 155.985 22.28C156.609 22.088 157.249 21.992 157.905 21.992C158.609 21.992 159.281 22.072 159.921 22.232C160.561 22.392 161.153 22.616 161.697 22.904C162.257 23.192 162.753 23.536 163.185 23.936L161.169 26.192C160.881 25.92 160.553 25.68 160.185 25.472C159.833 25.248 159.465 25.072 159.081 24.944C158.697 24.816 158.345 24.752 158.025 24.752C157.785 24.752 157.569 24.776 157.377 24.824C157.201 24.856 157.049 24.92 156.921 25.016C156.793 25.096 156.697 25.2 156.633 25.328C156.569 25.44 156.537 25.576 156.537 25.736C156.537 25.896 156.577 26.048 156.657 26.192C156.753 26.336 156.881 26.456 157.041 26.552C157.201 26.648 157.457 26.76 157.809 26.888C158.161 27 158.641 27.144 159.249 27.32C160.001 27.528 160.649 27.76 161.193 28.016C161.737 28.272 162.169 28.576 162.489 28.928C162.745 29.2 162.937 29.52 163.065 29.888C163.193 30.24 163.257 30.624 163.257 31.04C163.257 31.856 163.025 32.584 162.561 33.224C162.113 33.848 161.489 34.344 160.689 34.712C159.889 35.064 158.977 35.24 157.953 35.24ZM166.596 35V19.04H170.436V35H166.596ZM164.34 25.616V22.256H172.908V25.616H164.34Z" fill="#1A1D21"/>
</svg>
